<svg id="visual" viewBox="0 0 900 600" width="900" height="600" xmlns="http://www.w3.org/2000/svg" xmlns:xlink="http://www.w3.org/1999/xlink" version="1.1"><path d="M0 513L6.3 513.7C12.7 514.3 25.3 515.7 37.8 514.2C50.3 512.7 62.7 508.3 75.2 505.7C87.7 503 100.3 502 112.8 503.3C125.3 504.7 137.7 508.3 150.2 510.2C162.7 512 175.3 512 187.8 510.7C200.3 509.3 212.7 506.7 225.2 507.5C237.7 508.3 250.3 512.7 262.8 514C275.3 515.3 287.7 513.7 300.2 511C312.7 508.3 325.3 504.7 337.8 503C350.3 501.3 362.7 501.7 375.2 501.7C387.7 501.7 400.3 501.3 412.8 503.2C425.3 505 437.7 509 450 511.7C462.3 514.3 474.7 515.7 487.2 514.2C499.7 512.7 512.3 508.3 525 506.3C537.7 504.3 550.3 504.7 562.8 506.5C575.3 508.3 587.7 511.7 600.2 512.7C612.7 513.7 625.3 512.3 637.8 510.3C650.3 508.3 662.7 505.7 675.2 505.2C687.7 504.7 700.3 506.3 712.8 506.5C725.3 506.7 737.7 505.3 750.2 504.2C762.7 503 775.3 502 787.8 503.2C800.3 504.3 812.7 507.7 825.2 509C837.7 510.3 850.3 509.7 862.8 508.2C875.3 506.7 887.7 504.3 893.8 503.2L900 502L900 601L893.8 601C887.7 601 875.3 601 862.8 601C850.3 601 837.7 601 825.2 601C812.7 601 800.3 601 787.8 601C775.3 601 762.7 601 750.2 601C737.7 601 725.3 601 712.8 601C700.3 601 687.7 601 675.2 601C662.7 601 650.3 601 637.8 601C625.3 601 612.7 601 600.2 601C587.7 601 575.3 601 562.8 601C550.3 601 537.7 601 525 601C512.3 601 499.7 601 487.2 601C474.7 601 462.3 601 450 601C437.7 601 425.3 601 412.8 601C400.3 601 387.7 601 375.2 601C362.7 601 350.3 601 337.8 601C325.3 601 312.7 601 300.2 601C287.7 601 275.3 601 262.8 601C250.3 601 237.7 601 225.2 601C212.7 601 200.3 601 187.8 601C175.3 601 162.7 601 150.2 601C137.7 601 125.3 601 112.8 601C100.3 601 87.7 601 75.2 601C62.7 601 50.3 601 37.8 601C25.3 601 12.7 601 6.3 601L0 601Z" fill="#000000" stroke-linecap="round" stroke-linejoin="miter"></path></svg>